<svg xmlns="http://www.w3.org/2000/svg" viewBox="0 0 400 400" role="img" aria-label="Llavero sublimado"><defs>
<linearGradient id="a7" x1="0" y1="0" x2="1" y2="1"><stop offset="0" stop-color="#F59E0B"/><stop offset=".5" stop-color="#E11D48"/><stop offset="1" stop-color="#2563EB"/></linearGradient>
<linearGradient id="b7" x1="0" y1="1" x2="1" y2="0"><stop offset="0" stop-color="#10B981"/><stop offset="1" stop-color="#2563EB"/></linearGradient>
<linearGradient id="c7" x1="0" y1="0" x2="1" y2="1"><stop offset="0" stop-color="#FBBF24"/><stop offset="1" stop-color="#F43F5E"/></linearGradient>
<linearGradient id="s7" x1="0" y1="0" x2="1" y2="0"><stop offset="0" stop-color="#F1F5F9"/><stop offset=".5" stop-color="#fff"/><stop offset="1" stop-color="#E2E8F0"/></linearGradient>
</defs><ellipse cx="200" cy="362" rx="120" ry="12" fill="#0F172A" opacity=".09"/><circle cx="200" cy="74" r="34" fill="none" stroke="#94A3B8" stroke-width="8"/>
<rect x="150" y="96" width="100" height="22" rx="8" fill="#334155"/>
<rect x="116" y="112" width="168" height="196" rx="22" fill="url(#s7)" stroke="#CBD5E1" stroke-width="2"/><circle cx="200" cy="138" r="8" fill="#CBD5E1"/>
<g transform="translate(200 226) scale(0.82)">
<ellipse cx="0" cy="-34" rx="16" ry="38" fill="url(#a7)"/>
<ellipse cx="0" cy="-34" rx="16" ry="38" fill="url(#b7)" transform="rotate(72)" opacity=".92"/>
<ellipse cx="0" cy="-34" rx="16" ry="38" fill="url(#c7)" transform="rotate(144)" opacity=".92"/>
<ellipse cx="0" cy="-34" rx="16" ry="38" fill="url(#a7)" transform="rotate(216)" opacity=".9"/>
<ellipse cx="0" cy="-34" rx="16" ry="38" fill="url(#b7)" transform="rotate(288)" opacity=".92"/>
<circle r="11" fill="#0F172A"/><circle r="5" fill="#FBBF24"/></g></svg>